<svg width="414" height="309" viewBox="0 0 414 309" fill="none" xmlns="http://www.w3.org/2000/svg">
<g id="EWS 1">
<g id="surface1">
<g id="Group">
<path id="Vector" d="M92.198 178.534C90.0595 178.535 87.9801 177.876 86.3754 176.555L24.0332 125.576L86.3173 74.4791C89.5235 71.8345 94.6915 71.8316 97.9008 74.4725C101.11 77.1134 101.112 81.3607 97.9062 83.9581L47.2002 125.563L97.9535 167.063C101.163 169.704 101.165 173.951 97.9589 176.549C96.3558 177.871 94.2771 178.533 92.198 178.534Z" fill="#231F20"/>
</g>
<g id="Group_2">
<path id="Vector_2" d="M321.967 178.403C324.105 178.402 326.184 177.74 327.787 176.418L390.071 125.368L327.729 74.3416C324.52 71.7007 319.352 71.7036 316.145 74.3482C312.939 76.9928 312.941 81.24 316.151 83.8338L366.904 125.381L316.198 166.939C312.992 169.583 312.994 173.831 316.203 176.424C317.808 177.745 319.887 178.404 321.967 178.403Z" fill="#231F20"/>
</g>
<g id="Group_3">
<path id="Vector_3" d="M249.38 182.881C248.786 182.881 248.192 182.787 247.597 182.599C245.102 181.703 243.853 179.25 244.862 177.079L294.283 69.7359C295.291 67.5173 298.142 66.4774 300.638 67.3727C303.133 68.2207 304.322 70.7212 303.373 72.8926L253.893 180.235C253.181 181.888 251.34 182.88 249.38 182.881Z" fill="#231F20"/>
</g>
<path id="EWS" d="M122.008 140.812C122.008 142.922 122.742 143.977 124.211 143.977L129.109 143.977C132.969 143.977 135.867 143.109 137.805 141.375C138.367 140.859 138.898 140.328 139.398 139.781L140.219 138.891C140.734 138.375 141.078 138.102 141.25 138.07C141.438 138.039 141.594 138.016 141.719 138C142.531 137.953 142.477 138.828 141.555 140.625C140.617 142.5 139.836 144.625 139.211 147L119.664 147C119.023 147 118.469 147.016 118 147.047L115.281 147.281C114.813 147.328 114.313 147.352 113.781 147.352C113.266 147.352 112.859 147.297 112.563 147.187C112.281 147.094 112.063 146.977 111.906 146.836C111.594 146.57 111.438 146.297 111.438 146.016C111.438 145.719 111.516 145.461 111.672 145.242C111.828 145.008 112.055 144.891 112.352 144.891L113.852 145.055C114.93 145.055 115.656 144.578 116.031 143.625C116.344 142.844 116.5 141.391 116.5 139.266L116.5 118.102C116.5 116.023 116.352 114.664 116.055 114.023C115.773 113.383 115.43 112.945 115.023 112.711C114.633 112.477 114.125 112.359 113.5 112.359L112.352 112.5C112.055 112.5 111.828 112.398 111.672 112.195C111.516 111.992 111.438 111.789 111.438 111.586C111.438 111.383 111.469 111.203 111.531 111.047C111.609 110.875 111.734 110.719 111.906 110.578C112.297 110.234 112.836 110.062 113.523 110.062C114.227 110.062 114.781 110.078 115.188 110.109L116.406 110.25C117.547 110.359 118.547 110.414 119.406 110.414L138.789 110.414C138.898 111.555 139.102 112.758 139.398 114.023L140.031 116.672C140.141 117.187 140.195 117.555 140.195 117.773C140.195 118.211 140.031 118.43 139.703 118.43C139.5 118.43 139.125 118.125 138.578 117.516L137.172 115.969C136.297 115.047 135.594 114.469 135.063 114.234C134.547 113.984 134.078 113.812 133.656 113.719C132.875 113.547 131.836 113.461 130.539 113.461L124.211 113.461C123.367 113.461 122.789 113.641 122.477 114C122.164 114.359 122.008 114.875 122.008 115.547L122.008 125.531C122.008 126.359 122.695 126.773 124.07 126.773L129.859 126.773C130.953 126.773 131.953 126.227 132.859 125.133C133.172 124.758 133.406 124.391 133.563 124.031C133.719 123.656 133.844 123.406 133.938 123.281C134.047 123.156 134.195 123.094 134.383 123.094C134.883 123.094 135.133 123.531 135.133 124.406L134.945 128.18L135.133 132.141C135.133 133.016 134.883 133.453 134.383 133.453C134.195 133.453 134.055 133.391 133.961 133.266C133.867 133.125 133.742 132.875 133.586 132.516C133.43 132.141 133.188 131.773 132.859 131.414C132.547 131.039 132.219 130.734 131.875 130.5C131.219 130.031 130.547 129.797 129.859 129.797L124.047 129.797C123.391 129.797 122.883 129.937 122.523 130.219C122.18 130.5 122.008 130.844 122.008 131.25L122.008 140.812ZM158.781 147.82C158.547 147.82 158.43 147.68 158.43 147.398C158.43 147.18 158.516 147.008 158.688 146.883C158.938 146.711 159.063 146.5 159.063 146.25C159.063 146 159.023 145.719 158.945 145.406C158.867 145.078 158.766 144.687 158.641 144.234C158.359 143.297 157.688 141.578 156.625 139.078L147.391 117.187C146.188 114.5 145.203 112.953 144.438 112.547C144.188 112.406 143.945 112.336 143.711 112.336L142.398 112.5C142.102 112.5 141.875 112.406 141.719 112.219C141.563 112.016 141.484 111.812 141.484 111.609C141.484 111.406 141.531 111.219 141.625 111.047C141.719 110.875 141.859 110.719 142.047 110.578C142.453 110.234 143.008 110.062 143.711 110.062C144.43 110.062 145.156 110.125 145.891 110.25C146.641 110.359 147.367 110.414 148.07 110.414C148.789 110.414 149.375 110.391 149.828 110.344L152.664 110.109C153.148 110.078 153.727 110.062 154.398 110.062C155.07 110.062 155.609 110.219 156.016 110.531C156.422 110.828 156.625 111.164 156.625 111.539C156.625 112.164 156.328 112.477 155.734 112.477L153.953 112.289C152.938 112.289 152.43 112.648 152.43 113.367C152.43 113.805 152.75 114.812 153.391 116.391L161.5 136.172C161.844 137.047 162.148 137.617 162.414 137.883C162.758 138.211 163 138.375 163.141 138.375C163.563 138.375 163.93 137.922 164.242 137.016L170.313 119.836L169.188 117.094C168.484 115.062 167.922 113.812 167.5 113.344C167.078 112.859 166.727 112.57 166.445 112.477C166.164 112.383 165.859 112.336 165.531 112.336L164.219 112.5C163.922 112.5 163.695 112.406 163.539 112.219C163.383 112.016 163.305 111.812 163.305 111.609C163.305 111.406 163.352 111.219 163.445 111.047C163.539 110.875 163.672 110.719 163.844 110.578C164.266 110.234 164.828 110.062 165.531 110.062L170.008 110.414C170.523 110.414 171.016 110.391 171.484 110.344L174.297 110.109C174.781 110.078 175.359 110.062 176.031 110.062C176.703 110.062 177.242 110.219 177.648 110.531C178.055 110.828 178.258 111.164 178.258 111.539C178.258 112.164 177.961 112.477 177.367 112.477L175.586 112.289C175.039 112.289 174.664 112.375 174.461 112.547C174.273 112.703 174.18 112.922 174.18 113.203C174.18 113.625 174.453 114.687 175 116.391L181.445 135.937C181.742 136.859 182.016 137.445 182.266 137.695C182.766 138.164 183.125 138.219 183.344 137.859C183.453 137.672 183.609 137.305 183.813 136.758L190.656 116.883C191.313 115.023 191.641 113.789 191.641 113.18C191.641 112.57 191.148 112.266 190.164 112.266L188.336 112.477C188.07 112.477 187.852 112.383 187.68 112.195C187.523 111.992 187.445 111.75 187.445 111.469C187.445 111.187 187.633 110.883 188.008 110.555C188.398 110.227 189.07 110.062 190.023 110.062C190.977 110.062 191.898 110.125 192.789 110.25C193.695 110.359 194.453 110.414 195.063 110.414C195.688 110.414 196.313 110.359 196.938 110.25C197.563 110.125 198.109 110.062 198.578 110.062C199.063 110.062 199.422 110.109 199.656 110.203C199.906 110.281 200.117 110.391 200.289 110.531C200.68 110.828 200.875 111.133 200.875 111.445C200.875 111.742 200.789 111.992 200.617 112.195C200.461 112.398 200.242 112.5 199.961 112.5L198.648 112.336C198.242 112.336 197.867 112.383 197.523 112.477C197.18 112.555 196.828 112.797 196.469 113.203C195.75 114.047 194.883 115.898 193.867 118.758L187.773 136.43L185.641 142.195C185.031 143.852 184.727 144.852 184.727 145.195C184.727 145.523 184.781 145.758 184.891 145.898C185 146.039 185.117 146.156 185.242 146.25C185.586 146.5 185.758 146.711 185.758 146.883C185.758 147.555 185.461 147.891 184.867 147.891C184.555 147.891 184.07 147.734 183.414 147.422C182.773 147.109 182.078 146.641 181.328 146.016C179.484 144.453 178.148 142.539 177.32 140.273L172.07 125.484L166.867 139.969C165.477 143.844 163.391 146.328 160.609 147.422C159.922 147.687 159.313 147.82 158.781 147.82ZM226.492 120.211C226.273 120.211 226.086 120.102 225.93 119.883C225.789 119.664 225.539 119.187 225.18 118.453C224.82 117.703 224.289 116.969 223.586 116.25C222.883 115.516 222.094 114.914 221.219 114.445C219.531 113.555 217.43 113.109 214.914 113.109C212.57 113.109 210.773 113.609 209.523 114.609C208.445 115.453 207.906 116.531 207.906 117.844C207.906 119.5 208.422 120.867 209.453 121.945C210.719 123.273 212.742 124.305 215.523 125.039C218.32 125.758 220.563 126.508 222.25 127.289C223.953 128.055 225.328 128.922 226.375 129.891C228.391 131.719 229.398 134.047 229.398 136.875C229.398 140.141 228.234 142.734 225.906 144.656C223.547 146.578 220.305 147.539 216.18 147.539C211.977 147.539 208.25 146.781 205 145.266L202.352 144.023L202.352 135.727C202.352 133.82 202.68 132.867 203.336 132.867C203.789 132.867 204.086 133.336 204.227 134.273C204.555 137.242 205.953 139.695 208.422 141.633C210.688 143.398 213.219 144.281 216.016 144.281C221.5 144.281 224.242 142.422 224.242 138.703C224.242 137 223.703 135.57 222.625 134.414C221.172 132.867 218.727 131.695 215.289 130.898C211.102 129.945 207.945 128.453 205.82 126.422C203.883 124.578 202.914 122.383 202.914 119.836C202.914 117.07 203.922 114.758 205.938 112.898C208.25 110.758 211.461 109.687 215.57 109.687C218.273 109.687 220.5 110.047 222.25 110.766C222.578 110.906 222.758 110.977 222.789 110.977C222.836 110.977 222.891 110.969 222.953 110.953C223.031 110.937 223.117 110.891 223.211 110.812C223.367 110.703 223.578 110.469 223.844 110.109C224.344 109.453 224.727 109.125 224.992 109.125C225.617 109.125 225.945 109.531 225.977 110.344C226.055 112.625 226.234 114.352 226.516 115.523C226.969 117.414 227.195 118.672 227.195 119.297C227.195 119.906 226.961 120.211 226.492 120.211Z" fill="black"/>
</g>
</g>
</svg>
